<svg width="25" height="16" viewBox="0 0 25 16" fill="none" xmlns="http://www.w3.org/2000/svg">
<path fill-rule="evenodd" clip-rule="evenodd" d="M0.636719 1.625C0.636719 1.32663 0.755245 1.04048 0.966224 0.829505C1.1772 0.618526 1.46335 0.5 1.76172 0.5H23.5117C23.8101 0.5 24.0962 0.618526 24.3072 0.829505C24.5182 1.04048 24.6367 1.32663 24.6367 1.625C24.6367 1.92337 24.5182 2.20952 24.3072 2.4205C24.0962 2.63147 23.8101 2.75 23.5117 2.75H1.76172C1.46335 2.75 1.1772 2.63147 0.966224 2.4205C0.755245 2.20952 0.636719 1.92337 0.636719 1.625ZM0.636719 8C0.636719 7.70163 0.755245 7.41548 0.966224 7.2045C1.1772 6.99353 1.46335 6.875 1.76172 6.875H23.5117C23.8101 6.875 24.0962 6.99353 24.3072 7.2045C24.5182 7.41548 24.6367 7.70163 24.6367 8C24.6367 8.29837 24.5182 8.58452 24.3072 8.79549C24.0962 9.00647 23.8101 9.125 23.5117 9.125H1.76172C1.46335 9.125 1.1772 9.00647 0.966224 8.79549C0.755245 8.58452 0.636719 8.29837 0.636719 8ZM1.76172 13.25C1.46335 13.25 1.1772 13.3685 0.966224 13.5795C0.755245 13.7905 0.636719 14.0766 0.636719 14.375C0.636719 14.6734 0.755245 14.9595 0.966224 15.1705C1.1772 15.3815 1.46335 15.5 1.76172 15.5H23.5117C23.8101 15.5 24.0962 15.3815 24.3072 15.1705C24.5182 14.9595 24.6367 14.6734 24.6367 14.375C24.6367 14.0766 24.5182 13.7905 24.3072 13.5795C24.0962 13.3685 23.8101 13.25 23.5117 13.25H1.76172Z" fill="black"/>
</svg>
